PathFileType	4	(X/Y/Z)	./resultDataOpenSim/trcMotMarkerGrf/sub10/qtm-15-08.trc
DataRate	CameraRate	NumFrames	NumMarkers	Units	OrigDataRate	OrigDataStartFrame	OrigNumFrames
250.000000	250.000000	7	24	m	250.000000	317	507
Frame#	Time	L.Toe.Tip			R.Toe.Tip			L.Ankle.Lat			R.Ankle.Lat			L.Ankle.Med			R.Ankle.Med			L.Heel			R.Heel			L.Knee.Lat			R.Knee.Lat			L.Knee.Med			R.Knee.Med			L.Thigh.Upper			R.Thigh.Upper			L.ASIS			R.ASIS			V.Sacral			L.Acromium			R.Acromium			C7			L.Elbow			R.Elbow			L.Wrist.Lat			R.Wrist.Lat
		X1	Y1	Z1	X2	Y2	Z2	X3	Y3	Z3	X4	Y4	Z4	X5	Y5	Z5	X6	Y6	Z6	X7	Y7	Z7	X8	Y8	Z8	X9	Y9	Z9	X10	Y10	Z10	X11	Y11	Z11	X12	Y12	Z12	X13	Y13	Z13	X14	Y14	Z14	X15	Y15	Z15	X16	Y16	Z16	X17	Y17	Z17	X18	Y18	Z18	X19	Y19	Z19	X20	Y20	Z20	X21	Y21	Z21	X22	Y22	Z22	X23	Y23	Z23	X24	Y24	Z24

317	1.264	0.075706266	0.01499398	-0.11449413	0.82274282	0.038108709	0.039449602	0.072747653	0.15944463	-0.13629762	0.67802269	0.055349171	0.071791364	0.11165436	0.14919005	-0.061648605	0.700107	0.078999762	-0.012707175	0.036946459	0.20261842	-0.079054877	0.62853589	0.030018109	0.026724282	0.3830801	0.38394551	-0.17306362	0.7516	0.44478052	0.09356565	0.40789331	0.33660768	-0.060871119	0.7485628	0.45940182	-0.035253094	0.4835836	0.74950074	-0.19956993	0.5759637	0.8069682	0.17908468	0.56581448	0.86024119	-0.14413686	0.6169092	0.88299837	0.087962503	0.39451744	0.89579713	0.013939963	0.50294216	1.3642328	-0.14715924	0.47154706	1.3504123	0.1643616	0.41833585	1.3738849	0.0011007941	0.47233335	1.0374573	-0.2927414	0.28866604	1.0714763	0.22324166	0.7057878	1.0284899	-0.39001442	0.23099535	0.95666377	0.43305329
318	1.268	0.081279833	0.019337901	-0.11691509	0.82279722	0.038122116	0.039436512	0.079955878	0.16380882	-0.13747455	0.67829456	0.05518617	0.071589152	0.11872048	0.15261809	-0.062820785	0.70037748	0.078592686	-0.013030518	0.044627008	0.20710625	-0.079954607	0.62854818	0.029925339	0.026549077	0.39361701	0.3826901	-0.17435893	0.75562894	0.44336889	0.093223752	0.41788709	0.33527485	-0.061726303	0.75331362	0.4582593	-0.035608848	0.49044373	0.74774899	-0.19926062	0.58021215	0.80592486	0.17932578	0.57179189	0.85963698	-0.14412479	0.62273744	0.88256395	0.088841032	0.39889301	0.89319424	0.013306779	0.50937383	1.3633892	-0.14705319	0.47781589	1.3498885	0.16440347	0.42418002	1.3736939	0.0012965469	0.47707196	1.036249	-0.29145854	0.29634954	1.0691627	0.22299665	0.71024073	1.0252725	-0.38876108	0.23901239	0.95310567	0.43191091
319	1.272	0.087129847	0.023679806	-0.11926749	0.82284908	0.038136336	0.039424883	0.08745429	0.16812449	-0.13864785	0.67854223	0.05504188	0.07138869	0.12604352	0.15604019	-0.063955441	0.70063109	0.07822407	-0.013351698	0.052594735	0.21156765	-0.080877953	0.62856385	0.029846529	0.026369157	0.40427505	0.38148978	-0.17560553	0.75940579	0.4418812	0.092922586	0.42792709	0.33405235	-0.062600814	0.75788643	0.45694208	-0.035872881	0.49732222	0.74608737	-0.19880196	0.58442764	0.80511011	0.17959612	0.57768598	0.85907213	-0.1441402	0.62841093	0.8822814	0.08979821	0.4032464	0.89092153	0.012320059	0.51576068	1.3626003	-0.14689868	0.48406347	1.3494276	0.1643954	0.42991282	1.3735174	0.0014159292	0.4817682	1.0351393	-0.29015458	0.30406724	1.0668622	0.22275956	0.71460422	1.0219438	-0.38750255	0.24707826	0.94948075	0.43071958
320	1.276	0.09326909	0.028008988	-0.12156231	0.82289277	0.038151365	0.039413192	0.095244954	0.17238434	-0.13981814	0.67873714	0.054930057	0.07119351	0.13361825	0.15945794	-0.065045777	0.70086195	0.077890118	-0.013657496	0.060812594	0.21601157	-0.081805668	0.62857436	0.02977641	0.026185574	0.41503542	0.38036921	-0.17681815	0.76294411	0.44035787	0.092662813	0.43806851	0.33298308	-0.063581492	0.76227477	0.45549173	-0.036076401	0.50418757	0.74453713	-0.19819382	0.58856368	0.80461562	0.17993622	0.58349774	0.85855255	-0.14418506	0.63393087	0.88215064	0.090827767	0.40767061	0.88904223	0.010950198	0.52208222	1.3618647	-0.14671106	0.4903197	1.3490288	0.16434773	0.43554203	1.373348	0.001437143	0.48638642	1.0340267	-0.2887446	0.3118237	1.0645868	0.22251358	0.71883513	1.0185292	-0.38622438	0.25519566	0.94580409	0.42947527
321	1.28	0.099702424	0.03230737	-0.12378707	0.82292686	0.038166088	0.039401329	0.10331688	0.17658649	-0.14097854	0.67887971	0.054851661	0.071011875	0.14142088	0.16286412	-0.066083238	0.7010716	0.077586057	-0.013932985	0.069246489	0.22044484	-0.082729847	0.62857446	0.029715999	0.026004501	0.42587099	0.37933933	-0.17800257	0.76628223	0.43883929	0.092450135	0.44833053	0.33208452	-0.064695476	0.76647743	0.45395424	-0.036249321	0.51099276	0.74312788	-0.19747415	0.59260798	0.80446853	0.18035905	0.58923059	0.85808453	-0.14425857	0.63930153	0.88217068	0.091911883	0.41228946	0.88755712	0.0093097659	0.52833074	1.3611835	-0.14650448	0.49659435	1.3486915	0.16426516	0.44107498	1.3731887	0.0013785991	0.49090469	1.0329237	-0.28721765	0.31962998	1.0623479	0.22223219	0.72291895	1.0150344	-0.38492717	0.2633752	0.94209497	0.4281727
322	1.284	0.10642716	0.036557373	-0.12589225	0.82295007	0.03817871	0.039390198	0.1116495	0.18071976	-0.14211252	0.67898809	0.054795575	0.070851642	0.14941994	0.16623883	-0.067050259	0.70126005	0.077311692	-0.014170137	0.077895805	0.22485066	-0.083665513	0.62856051	0.029668558	0.025832472	0.43676683	0.37839928	-0.1791579	0.76944183	0.43736587	0.092276289	0.45866194	0.33132338	-0.065852375	0.77049708	0.45237975	-0.036425384	0.51769397	0.74190161	-0.19669762	0.59659844	0.80461688	0.18084147	0.59488586	0.85766602	-0.14435803	0.64453298	0.88234759	0.093022203	0.41722081	0.88642809	0.007606527	0.53451301	1.3605613	-0.14628983	0.50286312	1.3484074	0.16414733	0.44651736	1.3730506	0.0012694726	0.49529456	1.0319122	-0.28559506	0.32749286	1.060152	0.22189237	0.72686835	1.0114182	-0.38361841	0.2716246	0.93837551	0.42680515
323	1.288	0.1134352	0.040746063	-0.12782017	0.8229608	0.038187875	0.039381275	0.12022225	0.1847602	-0.1432085	0.67908198	0.054746088	0.070712185	0.15760439	0.1695651	-0.067945007	0.70142187	0.077071337	-0.014369361	0.086772508	0.22919436	-0.084624247	0.62853036	0.029636356	0.025674738	0.44770644	0.37754072	-0.18029118	0.77236648	0.43596859	0.092093371	0.4689936	0.33065077	-0.066918922	0.77433735	0.45081656	-0.036626637	0.5242656	0.74091382	-0.1958928	0.60060231	0.80496706	0.18132646	0.60046159	0.85728057	-0.14448211	0.6496392	0.88269178	0.094123829	0.42251227	0.88559345	0.0060625276	0.54063625	1.3600007	-0.14607913	0.50909188	1.3481627	0.16399747	0.45187043	1.372941	0.001134216	0.49949749	1.0310276	-0.2838349	0.33542027	1.0580031	0.22147601	0.7307028	1.0076286	-0.38230381	0.27994946	0.93466816	0.42537017
